<svg width="120" height="120" viewBox="0 0 120 120" fill="none" xmlns="http://www.w3.org/2000/svg">
  <rect x="1" y="1" width="118" height="118" rx="27" fill="#181818" stroke="#2A2A2A" stroke-width="1.5"/>
  <g transform="translate(21.6 21.6) scale(3.2)" fill="#C8A96E">
    <path d="M1.8,8 A1.2,1.2 0 0 1 4.2,8 L4.2,16 A1.2,1.2 0 0 1 1.8,16 Z M5.8,4 A1.2,1.2 0 0 1 8.2,4 L8.2,20 A1.2,1.2 0 0 1 5.8,20 Z M9.8,6 A1.2,1.2 0 0 1 12.2,6 L12.2,18 A1.2,1.2 0 0 1 9.8,18 Z M13.8,3 A1.2,1.2 0 0 1 16.2,3 L16.2,21 A1.2,1.2 0 0 1 13.8,21 Z M17.8,9 A1.2,1.2 0 0 1 20.2,9 L20.2,15 A1.2,1.2 0 0 1 17.8,15 Z"/>
  </g>
</svg>
